<svg width="269" height="92" viewBox="0 0 269 92" fill="none" xmlns="http://www.w3.org/2000/svg">
<path fill-rule="evenodd" clip-rule="evenodd" d="M67.2832 3.19871C67.0386 3.26899 66.7942 3.34146 66.55 3.41612C47.2777 9.30825 34.8665 27.0142 34.8289 46.1662C13.0455 55.5999 -0.595977 64.732 0.986278 69.9074C2.56312 75.065 18.8722 75.0257 42.0792 70.7099C52.6929 87.0432 73.1956 95.1006 92.7527 89.1214C112.255 83.1589 124.732 65.0988 124.47 45.6847C146.884 36.0861 161.006 26.7369 159.398 21.4761C157.784 16.1976 140.739 16.3625 116.662 20.9842C106.925 6.72299 89.5239 -0.9203 72.0672 2.09972C70.2391 2.36388 68.652 2.74404 67.2832 3.19871ZM145.863 19.3982C147.805 19.9629 150.118 20.6576 150.94 20.9804C152.377 21.5447 153.536 22.8626 153.467 24.1227C153.433 24.7353 152.91 25.8255 152.605 26.0324C152.834 25.5544 153.225 24.3414 152.834 23.4327C152.347 22.297 150.211 21.2233 145.432 21.2189C144.685 21.2182 144.039 21.2077 143.459 21.1982L143.458 21.1982C141.493 21.1664 140.28 21.1467 138.47 21.5607C138.718 21.5953 139.048 21.6332 139.433 21.6775L139.441 21.6784L139.442 21.6785L139.442 21.6786C141.368 21.8998 144.65 22.2767 145.905 23.162C147.489 24.278 147.726 27.3435 144.59 30.089C140.14 33.9853 135.978 35.9342 132.736 37.347C137.463 34.7508 145.505 29.8073 145.869 25.6025C146.117 22.7361 136.767 23.3461 132.216 24.1552C132.715 24.2517 133.315 24.3343 133.949 24.4215L133.961 24.4232C135.573 24.6449 137.4 24.8962 138.341 25.4747C139.824 26.3864 140.013 27.5936 139.027 28.6378L138.982 28.6852C138.845 28.8314 138.788 28.891 138.779 28.8844C138.773 28.8799 138.788 28.8439 138.815 28.7834C138.968 28.4358 139.48 27.2756 138.211 26.5585C136.366 25.5163 127.711 26.0343 125.558 26.4116C125.3 26.4568 125.01 26.5155 124.7 26.5839C130.128 26.5921 133.534 27.5095 134.119 29.4255C134.858 31.8407 130.995 35.4458 123.953 39.4967C123.479 39.7648 122.985 40.0629 122.465 40.3384C121.397 40.9032 120.406 41.4268 119.488 41.9087C110.356 46.5677 97.6489 51.5975 83.3141 55.9801C68.6586 60.4607 55.035 63.4293 44.7777 64.6236C44.5514 64.647 44.3078 64.6712 44.0429 64.6976C43.2163 64.78 42.1829 64.883 40.826 65.0422C40.2055 65.1151 39.5812 65.1542 39.0178 65.1739C39.0107 65.1586 39.0249 65.1892 39.0178 65.1739C38.5233 65.2001 38.0197 65.1746 37.5498 65.1893C37.3282 65.1865 37.1322 65.2066 37.0149 65.2036C37.0215 65.1954 37.0084 65.2117 37.0149 65.2036C30.8611 65.3402 26.9749 64.4345 26.3453 62.3753C25.6489 60.0975 29.0458 56.7611 35.3418 52.9906C35.2715 52.5317 35.2086 52.073 35.1531 51.6146C28.7249 55.2483 18.6052 62.0481 19.204 64.0066C20.1975 67.2564 28.9117 67.1285 33.4001 67.0344C28.7944 68.0142 19.2794 68.8501 17.9188 64.3995C16.9476 61.2231 28.0614 54.2101 35.1272 51.3965C35.0239 50.5093 34.9479 49.6231 34.8984 48.739C14.7307 57.2143 2.10791 65.0394 3.36747 69.1593C4.62319 73.2665 19.3771 72.7113 40.7303 68.4954C40.7261 68.4879 40.7346 68.5028 40.7303 68.4954C41.6926 68.3002 42.6963 68.104 43.6797 67.8985C43.6926 67.9095 43.6733 67.8878 43.6797 67.8985C55.5711 65.4343 69.3093 61.9078 83.7957 57.4789C97.7098 53.2249 110.586 48.6667 121.539 44.2312C121.829 44.1106 121.865 44.1179 122.063 44.0391C122.863 43.7198 124.116 43.1909 125.502 42.5962C145.654 34.1253 158.264 26.3054 157.005 22.1874C156.378 20.1341 152.376 19.2461 145.863 19.3982ZM37.6878 47.5823C37.8048 51.2104 38.3982 54.8833 39.5104 58.5211C40.0043 60.1366 40.5869 61.7007 41.2513 63.2096C43.7954 62.9499 46.6641 62.5438 49.7986 61.9997C48.1886 60.9034 46.9271 59.2719 46.3133 57.2643C45.5247 54.6847 45.9697 52.0221 47.3111 49.9108C45.4174 49.9721 43.8255 49.9885 42.6395 49.9755C43.9377 49.8334 45.67 49.6214 47.7026 49.3443C48.7912 47.8921 50.3339 46.7598 52.2024 46.1886C54.9206 45.3575 57.7311 45.8964 59.8914 47.4102C61.5583 47.1076 63.2547 46.7824 64.9476 46.4358L63.4697 42.013C57.3737 42.9631 51.0766 43.1658 48.113 43.1224C51.5854 42.6162 59.2322 41.4575 62.0406 40.8719C62.3505 40.8074 62.6781 40.7395 63.0206 40.6689L59.3241 29.6056C57.6587 30.1002 55.7967 30.5668 53.8729 30.9016C48.7491 31.7937 44.4646 31.3422 42.9629 31.0049C44.6497 30.9844 49.2416 30.7516 54.1145 29.9846C55.8533 29.7109 57.5664 29.371 59.1291 29.022L57.1586 23.1242C56.9629 22.5386 57.12 21.92 57.5147 21.4993C54.9147 21.6203 52.8748 21.521 51.7671 21.387C51.8682 21.3895 52.4231 21.379 53.8337 21.3172C55.0245 21.265 58.655 20.7143 62.6379 19.8391L60.355 13.0062C60.0927 12.9957 59.8693 12.9799 59.6911 12.9615C59.8416 12.9318 60.0483 12.8905 60.2993 12.8394L60.2347 12.6464C59.9285 11.73 60.4232 10.7388 61.3396 10.4327C62.2559 10.1265 63.2471 10.6212 63.5532 11.5376L63.7422 12.1031L64.0077 12.0433C66.2982 11.5237 70.9545 10.1402 71.2784 9.82045C71.5391 9.56293 69.9452 9.32584 67.6093 8.9787L67.6053 8.97804L66.9258 8.8768C66.5626 8.8224 66.1854 8.76539 65.7979 8.70529C64.0734 8.43775 62.4818 8.42382 61.3609 8.48524C46.4987 15.6501 37.3427 30.8908 37.6751 47.0948C37.6894 47.2528 37.7047 47.4107 37.721 47.5688L37.6878 47.5823ZM28.7688 61.6344C28.281 60.0386 30.842 57.6303 35.6556 54.7947C35.9536 56.3222 36.3336 57.849 36.7987 59.3702C37.2263 60.769 37.7163 62.1317 38.2645 63.456C32.7108 63.7921 29.2556 63.2264 28.7688 61.6344ZM131.696 30.1664C132.222 31.8873 129.202 34.5534 123.635 37.6812C123.339 36.1744 122.963 34.6681 122.504 33.1675C122.008 31.5443 121.428 29.9698 120.77 28.4473C127.158 27.9218 131.169 28.4418 131.696 30.1664ZM47.3832 73.1079C56.4319 83.9644 70.6112 89.751 85.0239 87.8641C85.182 87.7748 85.346 87.68 85.5156 87.5797C87.2846 86.5341 89.5297 84.5281 90.468 83.6895L90.6259 83.5486C90.6966 83.4856 90.7554 83.4336 90.8008 83.3941C91.1978 83.0495 91.589 82.9394 92.1261 82.7883C92.3617 82.722 92.6251 82.6478 92.9295 82.5425C93.7284 82.2662 98.0937 80.2811 100.177 79.3231C96.5095 80.5714 87.9777 83.3137 83.1867 84.2965C78.3959 85.2794 75.3525 85.1793 74.4296 85.0065C76.5099 84.6314 81.3265 83.741 83.9496 83.1799C87.2285 82.4787 92.9441 80.7514 93.6321 80.4406C94.1106 80.2245 95.0536 78.9528 95.6923 78.0916L95.6952 78.0876L95.7014 78.0792C95.8025 77.9429 95.8957 77.8171 95.9781 77.7076C96.1199 77.5194 96.2296 77.3797 96.2913 77.3188C96.4197 77.192 96.7352 77.0585 97.3558 76.7959L97.3584 76.7947C98.3037 76.3948 99.955 75.6958 102.726 74.2672C106.403 72.3722 110.818 69.5851 112.566 68.4284C109.605 70.0831 100.96 74.0724 90.0674 76.7924C79.1744 79.5124 66.5966 79.6986 61.6693 79.4517C65.5008 79.1569 75.0845 78.1127 82.7678 76.2938C92.3718 74.02 99.6235 71.3412 100.026 71.0173C100.306 70.7925 100.359 69.9213 100.393 69.3667C100.407 69.1229 100.419 68.9405 100.444 68.9021C100.506 68.8068 101.089 68.5985 101.627 68.4067C101.797 68.3458 101.963 68.2866 102.106 68.2332C102.582 68.0557 105.48 66.6395 106.87 65.9537C103.801 66.9457 96.6427 69.2089 92.5675 70.3264C88.4923 71.4438 83.8773 72.0864 82.079 72.2682C83.1051 72.1219 85.7776 71.6393 88.2599 70.8804C91.3627 69.9318 97.7128 67.8499 98.8047 67.4156C99.8966 66.9815 98.2542 65.8775 96.7241 65.8634C96.0525 65.8573 94.4679 66.2927 91.7142 67.0493C88.1941 68.0166 82.7638 69.5087 74.8891 71.2743C64.3992 73.626 52.8091 73.514 47.3832 73.1079ZM91.2578 41.5143L91.7075 41.4763C96.2191 41.0957 101.265 40.6701 104.201 39.6264C106.797 38.7037 112.976 33.8598 117.371 30.1933L116.8 30.5346C111.293 33.197 101.148 37.7789 91.2578 41.5143ZM68.1399 45.7544L66.695 41.4299C67.4786 41.2665 68.2476 41.0884 68.9938 40.8943C69.1999 40.8407 69.4079 40.7857 69.6178 40.7292L71.0695 45.0737C70.1057 45.3076 69.127 45.5346 68.1399 45.7544ZM77.6563 43.2806L76.0893 38.7748C76.7977 38.5422 77.5065 38.3047 78.2102 38.0646C78.9233 37.8213 79.6313 37.5754 80.3281 37.3297L82.0041 41.8822C80.5748 42.3668 79.1199 42.8367 77.6563 43.2806ZM75.9058 37.958C77.0325 37.702 78.521 37.2926 80.1387 36.8151L78.5827 32.5885C77.0736 32.9688 75.6357 33.3006 74.2854 33.5885L75.8125 37.9792L75.9058 37.958ZM90.4287 33.5179C88.8243 34.1719 86.3009 35.1584 83.3803 36.231L85.0658 40.8094C92.0302 38.2919 98.0331 35.6075 100.912 34.1875C100.752 33.8149 100.369 32.9361 100.125 32.4004C99.8811 31.8647 98.5188 29.5321 97.8682 28.4327C98.0278 28.3638 98.8571 27.9376 100.898 26.7838C102.938 25.6301 106.405 22.5369 107.884 21.1346C104.674 22.9592 95.694 27.4151 85.4539 30.6422C84.1833 31.0426 82.9398 31.4113 81.7309 31.7503L83.2466 35.8677C86.0245 34.9979 88.7627 34.0879 90.4287 33.5179ZM66.2218 40.0134C67.1701 39.8194 68.1644 39.6155 69.1757 39.4059L67.6333 34.7897C66.4175 34.9651 65.3946 35.0839 64.5988 35.1561L66.2218 40.0134ZM62.4053 28.591L64.5517 35.0149C65.3754 34.7945 66.3595 34.5286 67.4467 34.2313L65.1886 27.473C64.5505 27.7639 63.5913 28.1608 62.4053 28.591ZM65.1797 27.4464C64.5146 27.6524 63.5158 27.9395 62.2938 28.2575L60.2352 22.0962C60.1336 21.7923 59.951 21.5386 59.7193 21.3509C60.7623 21.2591 61.8659 21.1319 63.0125 20.9601L65.1797 27.4464ZM81.7821 30.0583C81.586 30.1217 81.3848 30.1863 81.1791 30.2517L76.5792 17.7568C81.7488 16.3288 86.2849 14.8181 89.7031 13.0209C93.9373 10.7949 95.4612 9.92206 95.694 9.76391C94.3285 10.8574 91.1329 13.3106 89.2745 14.3767C87.4161 15.4427 86.362 15.9698 86.0672 16.1001C87.7867 17.5218 91.491 20.5892 92.5521 21.4855C93.6131 22.3817 94.7238 23.9266 95.1466 24.5871C92.8959 25.6967 87.0723 28.3444 81.7821 30.0583ZM78.0741 31.2071L73.4323 18.5983C71.5419 19.0893 69.5857 19.575 67.5843 20.0644C67.4345 20.1011 67.2849 20.1368 67.1356 20.1718C66.9188 20.2227 66.7027 20.2718 66.4874 20.3192L67.0513 22.0069C67.2211 21.5424 67.5903 21.1553 68.0938 20.9801C68.9838 20.6706 69.9564 21.1412 70.266 22.0313L73.8833 32.4319C75.3055 32.0247 76.7293 31.6099 78.0741 31.2071ZM74.4503 11.9741L75.8562 15.7931C78.7415 14.691 80.9344 13.7504 81.1552 13.6268C81.5495 13.4058 80.3578 12.7261 79.1362 12.2765C78.159 11.9168 75.8272 10.9526 74.7834 10.5155C74.8899 10.4696 75.4002 10.2346 76.5903 9.66194C77.7805 9.08929 79.665 7.65785 80.4585 7.01381C77.5164 8.33484 70.7965 11.2124 67.4546 12.1539C66.2545 12.492 65.0695 12.7071 63.9879 12.8386L66.0542 19.0226C66.8482 18.8161 67.6328 18.5988 68.3919 18.3721C69.8409 17.9393 71.3547 17.4332 72.8128 16.9156L71.4062 13.0947C71.0968 12.2542 71.5274 11.3218 72.3679 11.0124C73.2086 10.7028 74.1409 11.1334 74.4503 11.9741ZM61.5086 48.8698C62.8495 48.7172 64.2135 48.5453 65.5879 48.3524L66.5191 51.1393C65.3864 50.5135 64.0287 50.2979 62.6892 50.6215C62.3626 49.9832 61.9648 49.3969 61.5086 48.8698Z" fill="#25292E"/>
<path d="M156.414 60.4584L154.224 59.2178C153.218 60.6553 151.936 61.4233 150.2 61.4233C147.735 61.4233 145.762 59.4935 145.762 56.6579C145.762 53.7239 147.774 51.8926 150.2 51.8926C152.054 51.8926 153.199 52.759 154.047 54.1768L156.236 52.8575C155.25 51.0065 153.159 49.4902 150.279 49.4902C146.236 49.4902 143.119 52.3652 143.119 56.6579C143.119 60.9507 146.117 63.8256 150.181 63.8256C153.199 63.8256 154.836 62.7426 156.414 60.4584Z" fill="#25292E"/>
<path d="M157.402 63.5499H160.183L161.564 59.9464H166.89L168.271 63.5499H171.052L165.47 49.7659H162.984L157.402 63.5499ZM162.452 57.6228L163.714 54.3146C163.714 54.3146 163.971 53.6451 164.227 52.8181C164.483 53.6451 164.74 54.3146 164.74 54.3146L166.002 57.6228H162.452Z" fill="#25292E"/>
<path d="M174.486 63.5499H177.089V52.1683H181.311V49.7659H170.265V52.1683H174.486V63.5499Z" fill="#25292E"/>
<path d="M192.393 49.7659L189.394 56.5595L185.982 49.7659H183.043L188.053 59.6117L187.797 60.1827C187.461 60.931 187.047 61.1476 186.436 61.1476C185.706 61.1476 185.055 60.9507 184.424 60.6356V63.4712C184.858 63.6484 185.607 63.8256 186.515 63.8256C188.152 63.8256 189.178 63.1364 190.164 60.9507L195.233 49.7659H192.393Z" fill="#25292E"/>
<path d="M196.716 63.5499H199.319V58.7452H202.988C206.105 58.7452 208.156 57.1502 208.156 54.2556C208.156 51.3609 206.105 49.7659 202.988 49.7659H196.716V63.5499ZM199.319 56.4216V52.0895H202.909C204.724 52.0895 205.552 52.9559 205.552 54.2556C205.552 55.5552 204.724 56.4216 202.909 56.4216H199.319Z" fill="#25292E"/>
<path d="M210.459 49.7659V63.5499H213.063V57.7213H219.099V63.5499H221.702V49.7659H219.099V55.3189H213.063V49.7659H210.459Z" fill="#25292E"/>
<path d="M143.533 85.9266H146.176L151.759 76.8292C151.759 76.8292 152.232 76.0415 152.35 75.7461V85.9266H154.875V72.1426H152.232L146.65 81.181C146.65 81.181 146.176 81.9686 146.058 82.264V72.1426H143.533V85.9266Z" fill="#25292E"/>
<path d="M157.72 72.1426V85.9266H160.323V80.0979H166.359V85.9266H168.963V72.1426H166.359V77.6956H160.323V72.1426H157.72Z" fill="#25292E"/>
<path d="M170.878 88.4077H173.304V85.9266H182.398V88.4077H184.824V83.5243H182.91V72.1426H173.719L173.403 77.6759C173.245 80.3933 172.87 81.8702 172.062 83.5243H170.878V88.4077ZM174.804 83.5243C175.514 81.7717 175.79 80.3342 175.948 77.6168L176.125 74.4662H180.307V83.5243H174.804Z" fill="#25292E"/>
<path d="M186.237 85.9266H189.019L190.399 82.3231H195.725L197.106 85.9266H199.887L194.305 72.1426H191.82L186.237 85.9266ZM191.287 79.9995L192.549 76.6913C192.549 76.6913 192.806 76.0218 193.062 75.1948C193.319 76.0218 193.575 76.6913 193.575 76.6913L194.837 79.9995H191.287Z" fill="#25292E"/>
<path d="M213.757 82.8351L211.567 81.5945C210.561 83.032 209.279 83.7999 207.543 83.7999C205.078 83.7999 203.105 81.8702 203.105 79.0346C203.105 76.1006 205.117 74.2693 207.543 74.2693C209.397 74.2693 210.541 75.1357 211.39 76.5535L213.579 75.2342C212.593 73.3832 210.502 71.8669 207.622 71.8669C203.579 71.8669 200.462 74.7419 200.462 79.0346C200.462 83.3273 203.46 86.2023 207.524 86.2023C210.541 86.2023 212.179 85.1193 213.757 82.8351Z" fill="#25292E"/>
<path d="M219.395 85.9266H221.999V74.545H226.22V72.1426H215.174V74.545H219.395V85.9266Z" fill="#25292E"/>
<path d="M228.248 85.9266H230.851V81.1219H234.52C237.637 81.1219 239.688 79.5269 239.688 76.6322C239.688 73.7376 237.637 72.1426 234.52 72.1426H228.248V85.9266ZM230.851 78.7983V74.4662H234.441C236.256 74.4662 237.084 75.3326 237.084 76.6322C237.084 77.9319 236.256 78.7983 234.441 78.7983H230.851Z" fill="#25292E"/>
<path d="M241.991 85.9266H244.634L250.216 76.8292C250.216 76.8292 250.69 76.0415 250.808 75.7461V85.9266H253.333V72.1426H250.69L245.108 81.181C245.108 81.181 244.634 81.9686 244.516 82.264V72.1426H241.991V85.9266Z" fill="#25292E"/>
<path d="M269 82.8351L266.811 81.5945C265.805 83.032 264.522 83.7999 262.787 83.7999C260.321 83.7999 258.349 81.8702 258.349 79.0346C258.349 76.1006 260.361 74.2693 262.787 74.2693C264.641 74.2693 265.785 75.1357 266.633 76.5535L268.822 75.2342C267.836 73.3832 265.745 71.8669 262.866 71.8669C258.822 71.8669 255.705 74.7419 255.705 79.0346C255.705 83.3273 258.704 86.2023 262.767 86.2023C265.785 86.2023 267.422 85.1193 269 82.8351Z" fill="#25292E"/>
</svg>
